<?xml version="1.0" standalone="no"?>
<!DOCTYPE svg PUBLIC "-//W3C//DTD SVG 20010904//EN"
 "http://www.w3.org/TR/2001/REC-SVG-20010904/DTD/svg10.dtd">
<svg version="1.0" xmlns="http://www.w3.org/2000/svg"
 width="40.000000pt" height="40.000000pt" viewBox="0 0 40.000000 40.000000"
 preserveAspectRatio="xMidYMid meet">
<metadata>
Created by potrace 1.10, written by Peter Selinger 2001-2011
</metadata>
<g transform="translate(0.000000,40.000000) scale(0.100000,-0.100000)"
fill="#000000" stroke="none">
<path d="M46 314 c-8 -20 -8 -128 0 -148 4 -10 18 -16 35 -16 28 0 29 1 29 54
l0 55 87 -55 c125 -78 153 -73 153 32 0 81 -6 94 -41 94 -28 0 -29 -1 -29 -54
l0 -55 -87 55 c-88 55 -136 68 -147 38z m144 -54 l95 -59 3 59 c3 52 6 60 22
60 18 0 20 -7 20 -75 0 -58 -4 -77 -15 -81 -8 -4 -57 20 -112 55 l-98 60 -5
-57 c-4 -44 -9 -58 -22 -60 -16 -3 -18 6 -18 77 0 71 2 81 18 81 9 0 60 -27
112 -60z"/>
<path d="M50 123 c-21 -8 -30 -24 -30 -56 0 -30 36 -55 64 -44 24 10 19 29 -6
25 -19 -2 -24 2 -26 25 -3 23 0 28 15 27 41 -5 49 0 29 15 -21 16 -23 16 -46
8z"/>
<path d="M125 120 c-3 -5 -3 -11 2 -12 4 0 13 -2 18 -3 6 -2 16 -3 23 -4 25
-2 11 -21 -17 -21 -32 0 -43 -16 -30 -42 6 -12 21 -17 49 -16 40 0 40 1 40 38
0 22 -7 45 -16 54 -17 18 -60 21 -69 6z m55 -59 c0 -14 -18 -23 -30 -16 -6 4
-8 11 -5 16 8 12 35 12 35 0z"/>
<path d="M220 74 c0 -41 4 -54 15 -54 11 0 15 11 15 41 0 33 3 40 17 37 14 -3
17 -11 15 -41 -3 -31 0 -37 16 -37 16 0 19 7 18 38 -1 27 3 37 14 37 10 0 16
-12 18 -38 2 -24 8 -37 18 -37 18 0 20 85 2 97 -7 4 -43 9 -80 9 l-68 1 0 -53z"/>
</g>
</svg>
